<svg viewBox="0 0 1097 129" xmlns="http://www.w3.org/2000/svg" fill-rule="evenodd" clip-rule="evenodd" stroke-linejoin="round" stroke-miterlimit="1.41421"><g fill="#271261" fill-rule="nonzero"><path d="M91 105V93h6V39h-6V16h31.5c24.3 0 31.6.3 32.2 1.3.4.7 1.9 2 3.3 2.9 3.7 2.3 6.5 5.1 6.8 6.8.2.8 1.2 2 2.3 2.8 1.7 1.2 1.9 2.6 1.9 15.1 0 12.3-.2 14.1-2 16.4-1.1 1.4-2 2.9-2 3.5 0 .5.9 1.7 2 2.7 1.8 1.7 2 3.1 2 17.5 0 17.8.5 16.5-9.8 26.6l-5.6 5.4H91v-12zm50-18.6c0-8.5-.9-9.4-9.4-9.4H125v16h16v-6.6zm-1.4-35.1c.7-1 1.4-4.2 1.4-7V39h-16v14h6.6c5.2 0 7-.4 8-1.7zM215.3 116.3L179 116V93.1l2.8-.3 2.7-.3.3-26.7.2-26.8h-6V16h74v27h-12c-11 0-12.1-.2-11.8-1.8.3-1.5-.7-1.7-7.9-2l-8.3-.3v7.6c0 6.8.2 7.5 2 7.5 1.1 0 2-.7 2-1.5 0-1.2 1.9-1.5 11-1.5h11v30h-10.9c-10 0-10.9-.2-11.4-2-.3-1.1-1.2-2-2.1-2-1.3 0-1.6 1.3-1.6 8v8h8.1c7.2 0 8.1-.2 8.6-2 .5-1.9 1.4-2 11.9-2H253v14c0 7.7-.3 13.9-.7 13.8-.5-.2-17.1-.4-37-.5zM280.8 116.3L262 116V93h5V39h-5V16h62.7l8.2 7.9 8.1 7.9v13.1c0 12.6-.1 13.1-2.5 15.5-1.4 1.4-2.8 2.5-3 2.5-.3 0-1.1.1-1.8.4-1.2.4 1 2.9 4.7 5.2 1.3.8 1.7 3.6 2.3 12.8.6 11.2.7 11.7 2.8 11.7 2.1 0 2.2.6 2.9 10.5.5 8.6.4 10.8-.8 12-1.2 1.2-4.8 1.5-18 1.5H311V98.4c0-19.8-.2-20.8-5.1-21.8-1.3-.3-4.3-.7-6.7-1.1l-4.3-.5.3 8.7c.3 8.8.3 8.8 3.1 9.1l2.7.3v12c0 6.5-.3 11.8-.7 11.7-.5-.2-9.2-.4-19.5-.5zm30.8-64.7c1.6-1.7 1.9-3.6.5-3.6-.6 0-.6-1.2 0-3 1.7-4.7-.4-6-9.5-6H295v6.3c0 3.5.3 6.7.7 7 1.3 1.4 14.4.7 15.9-.7zM355 105V93h6V39h-6V16h17c16.6 0 17 0 17 2.1 0 1.2 1.4 3.4 3 4.9 1.7 1.5 3 3.8 3 4.9 0 1.2 1.4 3.5 3 5.3 1.7 1.7 3 3.9 3 5 0 1 1.4 3.2 3 5 1.7 1.7 3 3.9 3 4.9 0 1.8 5.8 8.9 7.2 8.9.5 0 .8-4 .8-9v-9h-6.1l.3-11.2.3-11.3 19.8-.3L449 16v23h-6v54h6v24h-17.1c-9.3 0-16.8-.4-16.5-.8.3-.5-1-2.6-2.9-4.7s-3.5-4.6-3.5-5.6-1.3-3.2-3-4.7c-1.9-1.8-3-3.9-3-5.6 0-2.3-.9-3.1-3.3-2.7-.5.1-.6-.2-.3-.7.3-.5-.1-1.8-.9-2.8-.8-1-1.5-2.9-1.5-4.1 0-2.1-1-2.8-3.3-2.4-.4 0-.6-.2-.5-.6.4-1.3-2.4-7.3-3.3-7.3-.5 0-.9 4.1-.9 9v9h6v24h-40v-12zM457 105V93h6V39h-6V16h33.5l2.3 3.5c1.2 1.9 2.2 4.1 2.2 4.9 0 .8 1.4 2.8 3 4.6 1.7 1.8 3 4.1 3 5.1s1.4 3.2 3 4.7c1.7 1.6 3 3.8 3 5 0 1.1 1.4 3.4 3 5.2l3 3.3 3-3.2c1.7-1.7 3-3.9 3-5 0-1 1.4-3.3 3-5.1 1.7-1.8 3-4 3-5s1.4-3.2 3-5c1.7-1.8 3-3.8 3-4.5 0-.8.9-3 2.1-4.9l2.1-3.6H569v23h-6v54h6v24h-40V93.1l2.8-.3 2.7-.3V82c0-9.2-.2-10.5-1.7-10.8-1.3-.3-1.8.3-1.8 2.1 0 1.4-1.3 3.9-3 5.7-1.6 1.8-3 4-3 5 0 .9-1.3 3.1-3 4.8-1.6 1.8-3 4-3 4.9 0 2.2-4.2 7.3-6 7.3-1.8 0-6-5.1-6-7.3 0-.9-1.3-3.1-3-4.9-1.6-1.7-3-3.9-3-4.8 0-1-1.3-3.2-3-5-1.7-1.8-3-4.3-3-5.7 0-1.8-.5-2.4-1.7-2.1-1.6.3-1.8 1.8-2.1 11.1l-.3 10.7h6.2l-.2 12-.1 12H457v-12zM596.8 116.3L578 116v-11.5c0-11.1.1-11.5 2.1-11.5 3.3 0 6.9-4.5 6.9-8.5 0-2.4.6-3.9 2-4.7 1.3-.9 2-2.4 2-4.5 0-2 .8-4.1 2-5.3 1.2-1.2 2-3.3 2-5.5 0-2.4.6-3.9 2-4.7 1.3-.9 2-2.4 2-4.5 0-2 .8-4.1 2-5.3 1.1-1.1 2-3.3 2-5 0-1.6.5-3 1-3 .6 0 1-.7 1-1.5s-.9-1.5-2-1.5c-1.9 0-2-.7-2-11.5V16h54v11.4c0 10.5-.1 11.4-2 11.9-1.4.3-2 1.4-2 3.1 0 1.4.5 2.6 1 2.6.6 0 1 .9 1 2s.5 2 1 2c.6 0 1 1.4 1 3 0 1.7.5 3 1 3 .6 0 1 .9 1 2s.5 2 1 2c.6 0 1 1.1 1 2.5s.9 3.5 2 4.7c1.1 1.2 2 3.5 2 5 0 1.6.9 3.8 2 5 1.1 1.2 2 3.4 2 5 0 1.5.8 3.7 1.8 4.8.9 1.1 1.9 3 2.2 4.3.4 1.5 1.5 2.3 3.3 2.5l2.8.3-.2 12-.1 11.9H639v-12c0-7.3.4-12 1-12s1-.9 1-2c0-1.9-.7-2-13-2s-13 .1-13 2c0 1.1.5 2 1 2 .6 0 1 4.7 1 12 0 6.6-.3 11.9-.7 11.8-.5-.2-9.2-.4-19.5-.5zM633 66.5c0-1.4-.9-3.4-2-4.5s-2-3.1-2-4.5-.4-2.5-1-2.5c-.5 0-1 1.1-1 2.5s-.9 3.4-2 4.5-2 3.1-2 4.5c0 2.3.3 2.5 5 2.5s5-.2 5-2.5zM685 104.5V93h11l12.5-12.5c6.9-6.9 12.5-13 12.5-13.5 0-.6-1.9-3.2-4.2-5.6-2.4-2.5-4.7-5.3-5.2-6.1-.5-.9-4.2-4.9-8.2-8.9L696 39h-11V16h48v12.8c0 11.6.2 13.1 2 14.7 1.1 1 2 2.6 2 3.7 0 2.9 5.4 2.4 6.8-.6.6-1.3 2-2.7 3.1-3.1 2.2-.7 3-4.5 1-4.5-1.6 0-.8-19.2 1-21.3 1.2-1.5 4.1-1.7 23.7-1.7H795v23h-3.7c-3.4 0-4.7 1-17.1 13.6l-13.4 13.6 13.4 13.4c12.3 12.3 13.6 13.3 17.1 13.4h3.7v23h-21.7c-12 0-22.9-.3-24.2-.7-2.4-.6-2.4-.7-1.8-10.7.5-7.3 1.1-10.4 2.2-11.2 1.3-.9.6-2-4.1-6.7l-5.6-5.6-4.4 4.4c-4.1 4.2-5.7 7.5-3.4 7.5.6 0 1 4.5 1 11.5V116h-48v-11.5zM864.8 115.2c-5.4-.1-9.8-.7-9.8-1.2 0-.6-.6-1-1.4-1-.8 0-1.8-.9-2.1-2-.3-1.1-1.5-2-2.6-2-1 0-1.9-.4-1.9-1 0-.5-.6-1-1.4-1-.8 0-1.8-.9-2.1-2-.3-1.1-1.5-2-2.6-2-1.8 0-1.9-1.1-1.9-37.4 0-36.6 0-37.5 2-38.1 1.1-.3 2-1.1 2-1.6s.7-.9 1.5-.9 2.8-1.3 4.3-3c1.6-1.6 3.6-3 4.5-3 .8 0 1.7-.6 1.9-1.2.3-1 4.6-1.4 15.4-1.6 12.6-.3 15.4-.1 18.1 1.4 1.8.9 3.5 2.5 3.8 3.5.4 1.1 1.2 1.9 2 1.9 2.1 0 6 2.5 6.3 4 .2.8 1 1.9 1.8 2.3 1.2.7 1.4 6.7 1.4 36.3 0 22.6-.4 36.2-1 37.5-.6 1-2 1.9-3 1.9-1.1 0-3.3 1.4-4.8 3-1.6 1.7-3.6 3-4.5 3-.9 0-1.9.9-2.2 2-.5 1.7-1.5 2-6 2-2.9 0-5.9.1-6.7.3-.7.1-5.7.1-11-.1zm16.8-19.6c1.1-1.2 1.4-6.4 1.4-28.7 0-33.4 1.3-30.9-16.5-31.4-2.9-.1-5.5.4-6.2 1.1-1 .9-1.3 7.9-1.3 28.6 0 31.9-.8 29.9 12 30.9 4.1.3 7.9.6 8.3.7.5.1 1.5-.4 2.3-1.2zM954.3 115.2c-13.1-.2-14.2-.4-14.8-2.2-.4-1.1-1.3-2-2.2-2-.9 0-2.9-1.3-4.5-3-1.5-1.6-3.3-3-3.9-3-.5 0-1.9-.8-3-1.9-1.9-1.8-2-2.9-1.7-35l.3-33.1-3-.1c-1.6-.1-3.4-.1-3.9 0-.8.2 0-13.5 1-17.1.5-1.6 2.2-1.8 17.5-1.8H953v9.5c0 10.2.1 10.1-5.7 9.6l-2.3-.2v28.5c0 28.4 0 28.5 2.3 30.8 2 2 3.3 2.3 11 2.3 8.2 0 8.7-.1 9.9-2.5.9-1.8 1.3-10.5 1.6-30.2l.4-27.6-2.4-.4c-2.2-.3-2.3-.6-2.3-9.8v-9.5l15.8-.3 15.8-.3-.3 9.8-.3 9.8-3.7-.3-3.8-.4v33.7c0 28.7-.2 33.9-1.5 35.2-.8.8-1.3 1.9-1 2.4.4.5-.7.9-2.4.9-2.1 0-3.2.6-3.6 2-.3 1.1-1.3 2-2.1 2s-1.4.5-1.4 1c0 .6-.9 1-1.9 1-1.1 0-2.1.4-2.3.9-.5 1.4-3.7 1.6-18.5 1.3z"/></g><g fill="#392870" fill-rule="nonzero"><path d="M413 114c-.8-1.6-.8-1.8.4-1.4 1.7.6 3 3.4 1.6 3.4-.5 0-1.4-.9-2-2zM973 114c0-.5.7-1 1.6-1 .8 0 1.2.5.9 1-.3.6-1 1-1.6 1-.5 0-.9-.4-.9-1zM888.7 112.4c.3-.7.9-1.4 1.4-1.4 1.4 0 1 1.7-.5 2.3-1 .4-1.3.1-.9-.9zM849.4 110.5c-1.6-1.2-1.7-1.4-.3-1.5.9 0 1.9.7 2.3 1.5.7 1.9.5 1.9-2 0zM980.6 108.5c.4-.8 1.2-1.5 2-1.5 2 0 1.7.7-.6 2-1.6.9-1.8.8-1.4-.5zM896.6 106.5c.4-.8 1.2-1.5 2-1.5 2 0 1.7.7-.6 2-1.6.9-1.8.8-1.4-.5zM930.3 107.3c-1.5-.5-1.7-2.3-.4-2.3.5 0 1.1.7 1.5 1.5.3.8.4 1.5.3 1.4-.1 0-.8-.3-1.4-.6zM407 104c-.9-1.6-.8-1.8.5-1.4.8.4 1.5 1.2 1.5 2 0 2-.7 1.7-2-.6zM841.4 104.5c-1.6-1.2-1.7-1.4-.3-1.5.9 0 1.9.7 2.3 1.5.7 1.9.5 1.9-2 0zM989 68c0-21.3.4-33 1-33s1 11.7 1 33-.4 33-1 33-1-11.7-1-33zM878 96c0-.5.6-1 1.4-1 .8 0 1.6-.6 1.9-1.2.2-.7.8-1 1.2-.6.9.8-1.8 3.8-3.4 3.8-.6 0-1.1-.4-1.1-1zM947.3 94.4c-1.5-1.6-2.3-3.7-2.3-5.9 0-5 1.8-4.3 2.2.8.2 3.2.8 4.4 2.6 5.2 2.4 1 3 2.6 1 2.4-.7-.1-2.3-1.2-3.5-2.5zM401 94c-.9-1.6-.8-1.8.5-1.4.8.4 1.5 1.2 1.5 2 0 2-.7 1.7-2-.6zM139 92c0-.5.5-1 1-1 .6 0 1 .5 1 1 0 .6-.4 1-1 1-.5 0-1-.4-1-1zM707 79.9c7.3-7.2 13.4-12.8 13.7-12.6.6.7-24.4 25.7-25.7 25.7-.6 0 4.8-5.9 12-13.1zM731 90.5c0-1 9.1-9.7 9.7-9.2.3.3-1.6 2.6-4.1 5.1-4.3 4.4-5.6 5.3-5.6 4.1zM395 84c-.9-1.6-.8-1.8.5-1.4.8.4 1.5 1.2 1.5 2 0 2-.7 1.7-2-.6zM499 82c-.9-1.6-.8-1.8.5-1.4.8.4 1.5 1.2 1.5 2 0 2-.7 1.7-2-.6zM525 82.6c0-.8.7-1.6 1.5-2 1.3-.4 1.4-.2.5 1.4-1.3 2.3-2 2.6-2 .6zM493 72.5c-1-1.2-1-1.5.4-1.5.9 0 1.6.7 1.6 1.5s-.2 1.5-.4 1.5-.9-.7-1.6-1.5zM531 72c0-.5.7-1 1.6-1 .8 0 1.2.5.9 1-.3.6-1 1-1.6 1-.5 0-.9-.4-.9-1zM623 64.5c0-.8.5-1.5 1-1.5.6 0 1 .7 1 1.5s-.4 1.5-1 1.5c-.5 0-1-.7-1-1.5zM333 64.1c0-.5.7-1.1 1.4-1.4 1-.4 1.3-.1.9.9-.6 1.5-2.3 1.9-2.3.5zM631 64c0-.5.5-1 1-1 .6 0 1 .5 1 1 0 .6-.4 1-1 1-.5 0-1-.4-1-1zM627 56.5c0-.8.5-1.5 1-1.5.6 0 1 .7 1 1.5s-.4 1.5-1 1.5c-.5 0-1-.7-1-1.5zM702.5 47.5c-4.8-4.7-8.2-8.5-7.5-8.5 1 0 17 15.5 17 16.5 0 1.2-1.4 0-9.5-8zM309.3 51.6c.9-.7 1.7-1.8 1.7-2.5 0-.6.5-1.1 1-1.1.6 0 1 .5 1 1.1 0 1.5-2.6 3.9-4.2 3.9-.9-.1-.7-.5.5-1.4zM737 47.4c0-.8.5-1.2 1-.9.6.3 1 1 1 1.6 0 .5-.4.9-1 .9-.5 0-1-.7-1-1.6zM508.1 47.1c-.7-.5-1.1-1.5-.9-2.2.3-1 .8-.7 1.7.9 1.3 2.4 1.2 2.6-.8 1.3zM311 42.9c0-.7-.8-1.8-1.7-2.5-1.2-.9-1.4-1.3-.5-1.4 1.6 0 4.2 2.4 4.2 3.9 0 .6-.4 1.1-1 1.1-.5 0-1-.5-1-1.1zM138.5 40c-.3-.5.1-1 .9-1 .9 0 1.6.5 1.6 1 0 .6-.4 1-.9 1-.6 0-1.3-.4-1.6-1zM859 38.6c0-.9.5-1.6 1-1.6.6 0 1 .4 1 .9 0 .6-.4 1.3-1 1.6-.5.3-1-.1-1-.9zM502.1 37.1c-.7-.5-1.1-1.5-.9-2.2.3-1 .8-.7 1.7.9 1.3 2.4 1.2 2.6-.8 1.3zM523 36c1.3-2.3 2-2.6 2-.6 0 .8-.7 1.6-1.5 2-1.3.4-1.4.2-.5-1.4zM945 36c0-.5.7-1 1.6-1 .8 0 1.2.5.9 1-.3.6-1 1-1.6 1-.5 0-.9-.4-.9-1zM963 30c0-1.6.5-3 1-3 .6 0 1 1.4 1 3 0 1.7-.4 3-1 3-.5 0-1-1.3-1-3zM496.1 27.1c-.7-.5-1.1-1.5-.9-2.2.3-1 .8-.7 1.7.9 1.3 2.4 1.2 2.6-.8 1.3zM529 26c1.3-2.3 2-2.6 2-.6 0 .8-.7 1.6-1.5 2-1.3.4-1.4.2-.5-1.4zM963 24c0-.5.5-1 1-1 .6 0 1 .5 1 1 0 .6-.4 1-1 1-.5 0-1-.4-1-1z"/></g><g fill="#47367a" fill-rule="nonzero"><path d="M938.3 113.3c-1.5-.5-1.7-2.3-.4-2.3.5 0 1.1.7 1.5 1.5.3.8.4 1.5.3 1.4-.1 0-.8-.3-1.4-.6zM986 105.7c0-1.1 4.1-4.9 4.7-4.4.3.4-.4 1.6-1.7 2.7-2.2 1.9-3 2.4-3 1.7zM511 102c0-.5.9-1 2-1s2 .5 2 1c0 .6-.9 1-2 1s-2-.4-2-1zM964 96.1c0-.5.9-1.1 1.9-1.4 1.4-.3 1.8-.1 1.4.9-.6 1.5-3.3 1.9-3.3.5zM505.6 93.1c-.4-.7-.5-1.5-.2-1.8.9-.9 1.9.4 1.4 1.8-.4 1.1-.6 1.1-1.2 0zM519 92.6c0-.9.5-1.6 1-1.6.6 0 1 .4 1 .9 0 .6-.4 1.3-1 1.6-.5.3-1-.1-1-.9zM585 88c0-.5.5-1 1-1 .6 0 1 .5 1 1 0 .6-.4 1-1 1-.5 0-1-.4-1-1zM667 84c0-.5.5-1 1-1 .6 0 1 .5 1 1 0 .6-.4 1-1 1-.5 0-1-.4-1-1zM945 61c0-15.3.4-24 1-24s1 8.7 1 24-.4 24-1 24-1-8.7-1-24zM589 78c0-.5.5-1 1-1 .6 0 1 .5 1 1 0 .6-.4 1-1 1-.5 0-1-.4-1-1zM295 76c0-.5.7-1 1.5-1s1.5.5 1.5 1c0 .6-.7 1-1.5 1s-1.5-.4-1.5-1zM663 74c0-.5.5-1 1-1 .6 0 1 .5 1 1 0 .6-.4 1-1 1-.5 0-1-.4-1-1zM593 68c0-.5.5-1 1-1 .6 0 1 .5 1 1 0 .6-.4 1-1 1-.5 0-1-.4-1-1zM659 64c0-.5.5-1 1-1 .6 0 1 .5 1 1 0 .6-.4 1-1 1-.5 0-1-.4-1-1zM597 58c0-.5.5-1 1-1 .6 0 1 .5 1 1 0 .6-.4 1-1 1-.5 0-1-.4-1-1zM655 54c0-.5.5-1 1-1 .6 0 1 .5 1 1 0 .6-.4 1-1 1-.5 0-1-.4-1-1zM407 49.4c0-.8.5-1.2 1-.9.6.3 1 1 1 1.6 0 .5-.4.9-1 .9-.5 0-1-.7-1-1.6zM601 48c0-.5.5-1 1-1 .6 0 1 .5 1 1 0 .6-.4 1-1 1-.5 0-1-.4-1-1zM517 46.1c0-.6.5-1.3 1-1.6.6-.3 1 .1 1 .9 0 .9-.4 1.6-1 1.6-.5 0-1-.4-1-.9zM651 44c0-.5.5-1 1-1 .6 0 1 .5 1 1 0 .6-.4 1-1 1-.5 0-1-.4-1-1zM401 39.4c0-.8.5-1.2 1-.9.6.3 1 1 1 1.6 0 .5-.4.9-1 .9-.5 0-1-.7-1-1.6zM861 36c0-.5.7-1 1.6-1 .8 0 1.2.5.9 1-.3.6-1 1-1.6 1-.5 0-.9-.4-.9-1zM963.7 35.3c-1-.9-.9-2.3.2-2.3.5 0 1.1.7 1.5 1.5.5 1.5-.5 2-1.7.8zM395 29.4c0-.8.5-1.2 1-.9.6.3 1 1 1 1.6 0 .5-.4.9-1 .9-.5 0-1-.7-1-1.6zM900.7 27.6c-.4-1-.1-1.3.9-.9 1.5.6 1.9 2.3.5 2.3-.5 0-1.1-.7-1.4-1.4zM963 26c0-.5.5-1 1-1 .6 0 1 .5 1 1 0 .6-.4 1-1 1-.5 0-1-.4-1-1zM845 24.1c0-.5.7-1.1 1.4-1.4 1-.4 1.3-.1.9.9-.6 1.5-2.3 1.9-2.3.5zM892.7 21.6c-.4-1-.1-1.3.9-.9 1.5.6 1.9 2.3.5 2.3-.5 0-1.1-.7-1.4-1.4zM963 19.5c0-2.2.5-3.5 1.3-3.5.9 0 1.2 1.1.9 3.5-.2 1.9-.8 3.5-1.3 3.5s-.9-1.6-.9-3.5zM389 19.4c0-.8.5-1.2 1-.9.6.3 1 1 1 1.6 0 .5-.4.9-1 .9-.5 0-1-.7-1-1.6zM853 18c0-.5.5-1 1-1 .6 0 1 .5 1 1 0 .6-.4 1-1 1-.5 0-1-.4-1-1z"/></g><g fill="#7b6ea2" fill-rule="nonzero"><path d="M976.7 112.4c.3-.7.9-1.4 1.4-1.4 1.4 0 1 1.7-.5 2.3-1 .4-1.3.1-.9-.9zM748.4 92c0-1 .6-1.6 1.3-1.3.7.3 1.3.9 1.3 1.3s-.6 1-1.3 1.3c-.7.3-1.3-.3-1.3-1.3zM491 92c0-.5.5-1 1-1 .6 0 1 .5 1 1 0 .6-.4 1-1 1-.5 0-1-.4-1-1zM213 78c0-.5.7-1 1.5-1s1.5.5 1.5 1c0 .6-.7 1-1.5 1s-1.5-.4-1.5-1zM390.3 77.3c-1.5-.5-1.7-2.3-.4-2.3.5 0 1.1.7 1.5 1.5.3.8.4 1.5.3 1.4-.1 0-.8-.3-1.4-.6zM336.3 67.3c-1.5-.5-1.7-2.3-.4-2.3.5 0 1.1.7 1.5 1.5.3.8.4 1.5.3 1.4-.1 0-.8-.3-1.4-.6zM631 66c0-.5.5-1 1-1 .6 0 1 .5 1 1 0 .6-.4 1-1 1-.5 0-1-.4-1-1zM657 58c0-.5.5-1 1-1 .6 0 1 .5 1 1 0 .6-.4 1-1 1-.5 0-1-.4-1-1zM653 48c0-.5.5-1 1-1 .6 0 1 .5 1 1 0 .6-.4 1-1 1-.5 0-1-.4-1-1zM741 48.1c0-.5.7-1.1 1.4-1.4 1-.4 1.3-.1.9.9-.6 1.5-2.3 1.9-2.3.5zM746.7 42.4c.6-1.5 2.3-1.9 2.3-.5 0 .5-.7 1.1-1.4 1.4-1 .4-1.3.1-.9-.9zM183 40c0-.5.5-1 1-1 .6 0 1 .5 1 1 0 .6-.4 1-1 1-.5 0-1-.4-1-1zM295 40c0-.5.5-1 1-1 .6 0 1 .5 1 1 0 .6-.4 1-1 1-.5 0-1-.4-1-1zM413 40c0-.5.5-1 1-1 .6 0 1 .5 1 1 0 .6-.4 1-1 1-.5 0-1-.4-1-1zM922.7 37.3c-1.2-1.1-.8-2.3.8-2.3.8 0 1.5.7 1.5 1.5 0 1.6-1.2 2-2.3.8zM165.6 28.4c-2-1.9-2-2.5-.2-1.8.8.3 1.7 1.2 2 2 .7 1.8.1 1.8-1.8-.2zM155.6 18.4c-2-1.9-2-2.5-.2-1.8.8.3 1.7 1.2 2 2 .7 1.8.1 1.8-1.8-.2zM855 16c0-.5.7-1 1.5-1s1.5.5 1.5 1c0 .6-.7 1-1.5 1s-1.5-.4-1.5-1z"/></g><g fill="#938ab2" fill-rule="nonzero"><path d="M345 116c0-.5.5-1 1-1 .6 0 1 .5 1 1 0 .6-.4 1-1 1-.5 0-1-.4-1-1zM747 116c0-.5.7-1 1.5-1s1.5.5 1.5 1c0 .6-.7 1-1.5 1s-1.5-.4-1.5-1zM301 104.5c0-7 .4-11.5 1-11.5s1 4.5 1 11.5-.4 11.5-1 11.5-1-4.5-1-11.5zM496.8 104.5c.2-6.3.7-11.5 1.3-11.5.5 0 .9 5 .9 11.5 0 8.5-.3 11.5-1.2 11.5-1 0-1.2-2.8-1-11.5zM527 104.5c0-7 .4-11.5 1-11.5s1 4.5 1 11.5-.4 11.5-1 11.5-1-4.5-1-11.5zM676.8 104.5c.2-6.3.7-11.5 1.3-11.5.5 0 .9 5 .9 11.5 0 8.5-.3 11.5-1.2 11.5-1 0-1.2-2.8-1-11.5zM853 114c0-.5.5-1 1-1 .6 0 1 .5 1 1 0 .6-.4 1-1 1-.5 0-1-.4-1-1zM893 110.1c0-.5.7-1.1 1.4-1.4 1-.4 1.3-.1.9.9-.6 1.5-2.3 1.9-2.3.5zM932.7 109.6c-.4-1-.1-1.3.9-.9 1.5.6 1.9 2.3.5 2.3-.5 0-1.1-.7-1.4-1.4zM846.3 109.3c-1.5-.5-1.7-2.3-.4-2.3.5 0 1.1.7 1.5 1.5.3.8.4 1.5.3 1.4-.1 0-.8-.3-1.4-.6zM924.7 103.6c-.4-1-.1-1.3.9-.9 1.5.6 1.9 2.3.5 2.3-.5 0-1.1-.7-1.4-1.4zM509 100c0-.5.5-1 1-1 .6 0 1 .5 1 1 0 .6-.4 1-1 1-.5 0-1-.4-1-1zM515 100c0-.5.5-1 1-1 .6 0 1 .5 1 1 0 .6-.4 1-1 1-.5 0-1-.4-1-1zM169 84.5c0-9 .4-14.5 1-14.5s1 5.5 1 14.5-.4 14.5-1 14.5-1-5.5-1-14.5zM860.3 93.3c-1.5-.5-1.7-2.3-.4-2.3.5 0 1.1.7 1.5 1.5.3.8.4 1.5.3 1.4-.1 0-.8-.3-1.4-.6zM183 66.5c0-16.3.4-25.5 1-25.5s1 9.2 1 25.5-.4 25.5-1 25.5-1-9.2-1-25.5zM295 84.5c0-4.3.4-7.5 1-7.5s1 3.2 1 7.5-.4 7.5-1 7.5-1-3.2-1-7.5zM533 82c0-6 .4-10 1-10s1 4 1 10-.4 10-1 10-1-4-1-10zM491 81.4c0-7.2.3-9.5 1.3-9.1.6.2 1.2.9 1.1 1.5-.1.7-.2 4.8-.2 9.2-.3 11.6-2.2 10.2-2.2-1.6zM503 90c0-.5.5-1 1-1 .6 0 1 .5 1 1 0 .6-.4 1-1 1-.5 0-1-.4-1-1zM521 90c0-.5.5-1 1-1 .6 0 1 .5 1 1 0 .6-.4 1-1 1-.5 0-1-.4-1-1zM585 86c0-.5.5-1 1-1 .6 0 1 .5 1 1 0 .6-.4 1-1 1-.5 0-1-.4-1-1zM216.1 81.4c-1-1.2-1-1.9-.2-2.7.8-.8 1.1-.7 1.1.6 0 1.5 1.3 1.7 11 1.7 6.7 0 11 .4 11 1s-4.2 1-10.7 1c-8.5-.1-11.1-.4-12.2-1.6zM589 76c0-.5.5-1 1-1 .6 0 1 .5 1 1 0 .6-.4 1-1 1-.5 0-1-.4-1-1zM593 66c0-.5.5-1 1-1 .6 0 1 .5 1 1 0 .6-.4 1-1 1-.5 0-1-.4-1-1zM169 45c0-7.3.4-12 1-12s1 4.7 1 12-.4 12-1 12-1-4.7-1-12zM412.9 56.6c-.8-.8.3-15.6 1.2-15.6.5 0 .9 3.6.9 8 0 7-.6 9.1-2.1 7.6zM597 56c0-.5.5-1 1-1 .6 0 1 .5 1 1 0 .6-.4 1-1 1-.5 0-1-.4-1-1zM214.6 52.5c.4-.8 1-1.5 1.5-1.5s.9.7.9 1.5-.7 1.5-1.5 1.5c-.9 0-1.2-.6-.9-1.5zM409 52c0-.5.5-1 1-1 .6 0 1 .5 1 1 0 .6-.4 1-1 1-.5 0-1-.4-1-1zM295 46.5c0-3 .5-5.5 1-5.5.6 0 1 2.5 1 5.5s-.4 5.5-1 5.5c-.5 0-1-2.5-1-5.5zM515 48c0-.5.5-1 1-1 .6 0 1 .5 1 1 0 .6-.4 1-1 1-.5 0-1-.4-1-1zM601 46c0-.5.5-1 1-1 .6 0 1 .5 1 1 0 .6-.4 1-1 1-.5 0-1-.4-1-1zM403 42c0-.5.5-1 1-1 .6 0 1 .5 1 1 0 .6-.4 1-1 1-.5 0-1-.4-1-1zM603 40.5c0-.8.5-1.5 1-1.5.6 0 1 .7 1 1.5s-.4 1.5-1 1.5c-.5 0-1-.7-1-1.5zM407 27.5c0-8.5.3-11.5 1.3-11.5.9 0 1.1 2.8.9 11.5-.2 6.3-.7 11.5-1.3 11.5-.5 0-.9-5-.9-11.5zM397 32c0-.5.5-1 1-1 .6 0 1 .5 1 1 0 .6-.4 1-1 1-.5 0-1-.4-1-1zM391 22c0-.5.5-1 1-1 .6 0 1 .5 1 1 0 .6-.4 1-1 1-.5 0-1-.4-1-1zM747 16.6c0-.9.7-1.6 1.6-1.6 1.7 0 1.4 2.2-.4 2.8-.7.2-1.2-.3-1.2-1.2zM917 16.5c0-.8.7-1.5 1.5-1.5.9 0 1.2.6.9 1.5-.4.8-1 1.5-1.5 1.5s-.9-.7-.9-1.5z"/></g><g fill="#a69ebf" fill-rule="nonzero"><path d="M858 116c0-.6 3.3-1 8-1s8 .4 8 1-3.3 1-8 1-8-.4-8-1zM876 116c0-.5 2.3-1 5-1 2.8 0 5 .5 5 1 0 .6-2.2 1-5 1-2.7 0-5-.4-5-1zM942 116c0-.6 5-1 13-1s13 .4 13 1-5 1-13 1-13-.4-13-1zM970 116c0-.5.7-1 1.5-1s1.5.5 1.5 1c0 .6-.7 1-1.5 1s-1.5-.4-1.5-1zM168.7 100.4c.3-.7.9-1.4 1.4-1.4 1.4 0 1 1.7-.5 2.3-1 .4-1.3.1-.9-.9zM125 92c0-.5.5-1 1-1 .6 0 1 .5 1 1 0 .6-.4 1-1 1-.5 0-1-.4-1-1zM137 92c0-.5.5-1 1-1 .6 0 1 .5 1 1 0 .6-.4 1-1 1-.5 0-1-.4-1-1zM213 92c0-.5.5-1 1-1 .6 0 1 .5 1 1 0 .6-.4 1-1 1-.5 0-1-.4-1-1zM359 92c0-.5.5-1 1-1 .6 0 1 .5 1 1 0 .6-.4 1-1 1-.5 0-1-.4-1-1zM389 92c0-.5.5-1 1-1 .6 0 1 .5 1 1 0 .6-.4 1-1 1-.5 0-1-.4-1-1zM731 92c0-.5.5-1 1-1 .6 0 1 .5 1 1 0 .6-.4 1-1 1-.5 0-1-.4-1-1zM639 90c0-.5.5-1 1-1 .6 0 1 .5 1 1 0 .6-.4 1-1 1-.5 0-1-.4-1-1zM859 65.5c0-16.3.4-25.5 1-25.5s1 9.2 1 25.5-.4 25.5-1 25.5-1-9.2-1-25.5zM667 82c0-.5.5-1 1-1 .6 0 1 .5 1 1 0 .6-.4 1-1 1-.5 0-1-.4-1-1zM531 74c0-.5.5-1 1-1 .6 0 1 .5 1 1 0 .6-.4 1-1 1-.5 0-1-.4-1-1zM663 72c0-.5.5-1 1-1 .6 0 1 .5 1 1 0 .6-.4 1-1 1-.5 0-1-.4-1-1zM659 62c0-.5.5-1 1-1 .6 0 1 .5 1 1 0 .6-.4 1-1 1-.5 0-1-.4-1-1zM168.7 58.4c.3-.7.9-1.4 1.4-1.4 1.4 0 1 1.7-.5 2.3-1 .4-1.3.1-.9-.9zM125 52c0-.5.5-1 1-1 .6 0 1 .5 1 1 0 .6-.4 1-1 1-.5 0-1-.4-1-1zM137 52.1c0-.5.7-1.1 1.4-1.4 1-.4 1.3-.1.9.9-.6 1.5-2.3 1.9-2.3.5zM655 52c0-.5.5-1 1-1 .6 0 1 .5 1 1 0 .6-.4 1-1 1-.5 0-1-.4-1-1zM651 41.4c0-.8.5-1.2 1-.9.6.3 1 1 1 1.6 0 .5-.4.9-1 .9-.5 0-1-.7-1-1.6zM125 40c0-.5.5-1 1-1 .6 0 1 .5 1 1 0 .6-.4 1-1 1-.5 0-1-.4-1-1zM213 40c0-.5.5-1 1-1 .6 0 1 .5 1 1 0 .6-.4 1-1 1-.5 0-1-.4-1-1zM359 40c0-.5.5-1 1-1 .6 0 1 .5 1 1 0 .6-.4 1-1 1-.5 0-1-.4-1-1zM866 36c0-.5 1.4-1 3-1 1.7 0 3 .5 3 1 0 .6-1.3 1-3 1-1.6 0-3-.4-3-1zM918.7 35.6c-.4-1 0-1.2 1.4-.9 2.2.6 2.6 2.3.5 2.3-.8 0-1.6-.6-1.9-1.4zM950 36c0-.5.7-1 1.5-1s1.5.5 1.5 1c0 .6-.7 1-1.5 1s-1.5-.4-1.5-1zM991 36c0-.5.7-1 1.5-1s1.5.5 1.5 1c0 .6-.7 1-1.5 1s-1.5-.4-1.5-1zM168.7 31.6c-.4-1-.1-1.3.9-.9 1.5.6 1.9 2.3.5 2.3-.5 0-1.1-.7-1.4-1.4zM840.7 26.4c.6-1.5 2.3-1.9 2.3-.5 0 .5-.7 1.1-1.4 1.4-1 .4-1.3.1-.9-.9zM848.7 20.4c.6-1.5 2.3-1.9 2.3-.5 0 .5-.7 1.1-1.4 1.4-1 .4-1.3.1-.9-.9z"/></g><g fill="#c8c5d8" fill-rule="nonzero"><path d="M177 104.4c0-7.8.4-10.9 1.4-12 1.7-1.6 4.2-1.8 5.1-.4.4.6-.5 1-1.9 1H179v11c0 6.7-.4 11-1 11s-1-4.2-1-10.6zM353 104.4c0-10.9.8-13.4 4.4-13.4 1.4 0 1.6-2.9 1.6-25s-.2-25-1.6-25c-3.6 0-4.4-2.5-4.4-13.4 0-6.4.4-10.6 1-10.6s1 4.3 1 11c0 9.3.2 11 1.6 11 4.1 0 4.4 1.8 4.4 27s-.3 27-4.4 27c-1.4 0-1.6 1.7-1.6 11 0 6.7-.4 11-1 11s-1-4.2-1-10.6zM637 104c0-6.7.4-11 1-11s1-.4 1-1-4.3-1-11-1-11 .4-11 1-.4 1-1 1c-.5 0-1-.9-1-2 0-1.9.7-2 11.6-2 9.4 0 11.8.3 13.2 1.7 1.2 1.2 1.3 1.8.4 2.1-.8.2-1.2 3.5-1.2 11.3 0 6.6-.4 10.9-1 10.9s-1-4.3-1-11zM683 104.4c0-7.8.4-10.9 1.4-12 1.6-1.6 9.6-1.9 9.6-.4 0 .6-2 1-4.5 1H685v11c0 6.7-.4 11-1 11s-1-4.2-1-10.6zM733 104c0-6.7.4-11 1-11s1 4.3 1 11-.4 11-1 11-1-4.3-1-11zM795 104V93h-3.9c-2.2 0-4.3-.4-4.6-1-1-1.6 7.5-1.2 9.1.4 1.7 1.7 2.1 22.6.4 22.6-.6 0-1-4.3-1-11zM891 112c0-.5.5-1 1-1 .6 0 1 .5 1 1 0 .6-.4 1-1 1-.5 0-1-.4-1-1zM927 106c0-.5.5-1 1-1 .6 0 1 .5 1 1 0 .6-.4 1-1 1-.5 0-1-.4-1-1zM91 92c0-.5 1.4-1 3-1 1.7 0 3 .5 3 1 0 .6-1.3 1-3 1-1.6 0-3-.4-3-1zM126.3 91.5c-1.5-1.7-1.8-14.5-.3-14.5.6 0 1 3 1 7v7h5c2.8 0 5 .5 5 1 0 1.6-9.3 1.1-10.7-.5zM214.3 91.5c-1.3-1.4-1.9-12.5-.7-12.5.3 0 1.3.8 2.2 1.7 1.2 1.2 1.3 1.8.4 2.1-.7.2-1.2 2.1-1.2 4.4v4l7.5-.4c4.7-.2 7.4.1 7.2.7-.6 1.7-14 1.7-15.4 0zM263 92c0-.5.9-1 2-1s2 .5 2 1c0 .6-.9 1-2 1s-2-.4-2-1zM296.5 92c.3-.5 1.5-1 2.6-1 1 0 1.9.5 1.9 1 0 .6-1.2 1-2.6 1-1.4 0-2.3-.4-1.9-1zM341 92c0-.5.9-1 2-1s2 .5 2 1c0 .6-.9 1-2 1s-2-.4-2-1zM390.3 91.5c-1.7-1.9-1.8-14.8-.1-14.3.7.3 1.1 2.7.9 7.1-.2 6.2-.1 6.7 1.8 6.7 1.2 0 2.1.5 2.1 1 0 1.5-3.3 1.1-4.7-.5zM443 92c0-.5 1.4-1 3-1 1.7 0 3 .5 3 1 0 .6-1.3 1-3 1-1.6 0-3-.4-3-1zM459 92c0-.5.9-1 2-1s2 .5 2 1c0 .6-.9 1-2 1s-2-.4-2-1zM493 92c0-.5.9-1 2-1s2 .5 2 1c0 .6-.9 1-2 1s-2-.4-2-1zM529 92c0-.5.9-1 1.9-1 1.1 0 2.3.5 2.6 1 .4.6-.5 1-1.9 1s-2.6-.4-2.6-1zM563 92c0-.5.9-1 2-1s2 .5 2 1c0 .6-.9 1-2 1s-2-.4-2-1zM579 92.2c0-.5 1.1-1.2 2.5-1.5 1.6-.3 2.4 0 2.2.7-.4 1.4-4.7 2.1-4.7.8zM672 92c0-.5 1.1-1 2.5-1s2.5.5 2.5 1c0 .6-1.1 1-2.5 1s-2.5-.4-2.5-1zM231 88c0-.6 4.3-1 11-1s11 .4 11 1-4.3 1-11 1-11-.4-11-1zM669.6 87.1c-.4-.7-.5-1.5-.2-1.8.9-.9 1.9.4 1.4 1.8-.4 1.1-.6 1.1-1.2 0zM239 66V51h-11c-6.7 0-11-.4-11-1 0-1.7 20.9-1.3 22.6.4 1.1 1.1 1.4 4.7 1.4 16 0 9.1-.4 14.6-1 14.6s-1-5.7-1-15zM665.6 77.1c-.4-.7-.5-1.5-.2-1.8.9-.9 1.9.4 1.4 1.8-.4 1.1-.6 1.1-1.2 0zM631 68c0-.5.5-1 1-1 .6 0 1 .5 1 1 0 .6-.4 1-1 1-.5 0-1-.4-1-1zM661.6 67.1c-.4-.7-.5-1.5-.2-1.8.9-.9 1.9.4 1.4 1.8-.4 1.1-.6 1.1-1.2 0zM719 66c0-.5.5-1 1-1 .6 0 1 .5 1 1 0 .6-.4 1-1 1-.5 0-1-.4-1-1zM657 56c0-.5.5-1 1-1 .6 0 1 .5 1 1 0 .6-.4 1-1 1-.5 0-1-.4-1-1z"/><path d="M213 48c0-4 .5-6.6 1.4-7.6 1.7-1.6 14.1-2 15.1-.4.4.6-2.2 1-6.9 1H215v5.9c0 3.3-.4 6.3-1 6.6-.6.4-1-1.7-1-5.5zM126.3 51.5c-1.8-1.9-1.6-9.3.1-11.1 1.7-1.6 11.6-2 11.6-.4 0 .6-2.5 1-5.5 1H127v10h5c2.8 0 5 .5 5 1 0 1.6-9.3 1.1-10.7-.5zM296.5 52c.3-.5 3.1-1 6.1-1 3 0 5.4.5 5.4 1 0 .6-2.7 1-6.1 1-3.7 0-5.8-.4-5.4-1zM653 46c0-.5.5-1 1-1 .6 0 1 .5 1 1 0 .6-.4 1-1 1-.5 0-1-.4-1-1zM231 44c0-.6 4-1 10-1s10 .4 10 1-4 1-10 1-10-.4-10-1zM91 40c0-.5 1.4-1 3-1 1.7 0 3 .5 3 1 0 .6-1.3 1-3 1-1.6 0-3-.4-3-1zM178.3 39.5c-1.6-1.8-1.8-22.5-.3-22.5.6 0 1 4.3 1 11 0 10.3.1 11 2 11 1.1 0 2 .5 2 1 0 1.5-3.3 1.1-4.7-.5zM263 40c0-.5.9-1 2-1s2 .5 2 1c0 .6-.9 1-2 1s-2-.4-2-1zM297 40c0-.5 2.5-1 5.5-1s5.5.5 5.5 1c0 .6-2.5 1-5.5 1s-5.5-.4-5.5-1zM409 40c0-.5.9-1 2-1s2 .5 2 1c0 .6-.9 1-2 1s-2-.4-2-1zM443 40c0-.5.9-1 2-1s2 .5 2 1c0 .6-.9 1-2 1s-2-.4-2-1zM459 40c0-.5.9-1 2-1s2 .5 2 1c0 .6-.9 1-2 1s-2-.4-2-1zM563 40c0-.5.9-1 2-1s2 .5 2 1c0 .6-.9 1-2 1s-2-.4-2-1zM601 40c0-.5.5-1 1-1 .6 0 1 .5 1 1 0 .6-.4 1-1 1-.5 0-1-.4-1-1zM652 40c0-.5.7-1 1.5-1 1.2 0 1.5-1.9 1.5-11 0-6.7.4-11 1-11 1.7 0 1.3 20.9-.4 22.6-1.7 1.6-3.6 1.9-3.6.4zM684.3 39.5c-1.6-1.8-1.8-22.5-.3-22.5.6 0 1 4.3 1 11v11h4.5c2.5 0 4.5.5 4.5 1 0 1.5-8.3 1.1-9.7-.5zM786.5 40c.3-.5 2.4-1 4.6-1h3.9V28c0-6.7.4-11 1-11 1.7 0 1.3 20.9-.4 22.6-1.6 1.6-10.1 2-9.1.4zM733 28c0-6.7.4-11 1-11s1 4.3 1 11-.4 11-1 11-1-4.3-1-11zM917 36c0-.5.5-1 1-1 .6 0 1 .5 1 1 0 .6-.4 1-1 1-.5 0-1-.4-1-1z"/></g><g fill="#d7d4e3" fill-rule="nonzero"><path d="M177 116c0-.5.4-1 .9-1 .6 0 1.3.5 1.6 1 .3.6-.1 1-.9 1-.9 0-1.6-.4-1.6-1zM353 116c0-.5.5-1 1-1 .6 0 1 .5 1 1 0 .6-.4 1-1 1-.5 0-1-.4-1-1zM637 116c0-.5.5-1 1-1 .6 0 1 .5 1 1 0 .6-.4 1-1 1-.5 0-1-.4-1-1zM855 116c0-.5.7-1 1.5-1s1.5.5 1.5 1c0 .6-.7 1-1.5 1s-1.5-.4-1.5-1zM935 112c0-.5.5-1 1-1 .6 0 1 .5 1 1 0 .6-.4 1-1 1-.5 0-1-.4-1-1zM410.1 111.1c-.7-.5-1.1-1.5-.9-2.2.3-1 .8-.7 1.7.9 1.3 2.4 1.2 2.6-.8 1.3zM404.3 101.3c-1.5-.5-1.7-2.3-.4-2.3.5 0 1.1.7 1.5 1.5.3.8.4 1.5.3 1.4-.1 0-.8-.3-1.4-.6zM261 92.6c0-.9.5-1.6 1-1.6.6 0 1 .4 1 .9 0 .6-.4 1.3-1 1.6-.5.3-1-.1-1-.9zM345.6 93.1c-.4-.7-.5-1.5-.2-1.8.9-.9 1.9.4 1.4 1.8-.4 1.1-.6 1.1-1.2 0zM577 92.6c0-.9.5-1.6 1-1.6.6 0 1 .4 1 .9 0 .6-.4 1.3-1 1.6-.5.3-1-.1-1-.9zM457 92c0-.5.5-1 1-1 .6 0 1 .5 1 1 0 .6-.4 1-1 1-.5 0-1-.4-1-1zM567 92c0-.5.5-1 1-1 .6 0 1 .5 1 1 0 .6-.4 1-1 1-.5 0-1-.4-1-1zM881 92c0-.5.5-1 1-1 .6 0 1 .5 1 1 0 .6-.4 1-1 1-.5 0-1-.4-1-1zM398.1 91.1c-.7-.5-1.1-1.5-.9-2.2.3-1 .8-.7 1.7.9 1.3 2.4 1.2 2.6-.8 1.3zM694 91.5c0-1 24.2-24.7 24.7-24.2S695.5 92 694.5 92c-.3 0-.5-.2-.5-.5zM139 90c0-.5.5-1 1-1 .6 0 1 .5 1 1 0 .6-.4 1-1 1-.5 0-1-.4-1-1zM733 90.5c0-.3 1.6-2.1 3.5-4 3.4-3.5 5.5-4.4 5.5-2.5 0 .6-.5 1-1.1 1-.6 0-2.4 1.4-3.9 3-2.6 2.8-4 3.7-4 2.5zM229 88.6c0-.9.5-1.6 1-1.6.6 0 1 .4 1 .9 0 .6-.4 1.3-1 1.6-.5.3-1-.1-1-.9zM523 88.1c0-.6.5-1.3 1-1.6.6-.3 1 .1 1 .9 0 .9-.4 1.6-1 1.6-.5 0-1-.4-1-.9zM392.3 81.3c-1.5-.5-1.7-2.3-.4-2.3.5 0 1.1.7 1.5 1.5.3.8.4 1.5.3 1.4-.1 0-.8-.3-1.4-.6zM496.1 79.1c-.7-.5-1.1-1.5-.9-2.2.3-1 .8-.7 1.7.9 1.3 2.4 1.2 2.6-.8 1.3zM529 78c1.3-2.3 2-2.6 2-.6 0 .8-.7 1.6-1.5 2-1.3.4-1.4.2-.5-1.4zM701.4 48.6c-6-6.2-8-8.6-7-8.6.7 0 14.6 13.8 14.6 14.5 0 1.4-2-.1-7.6-5.9zM308.7 50.4c.6-1.5 2.3-1.9 2.3-.5 0 .5-.7 1.1-1.4 1.4-1 .4-1.3.1-.9-.9zM738.7 47.6c-.4-1-.1-1.3.9-.9.7.3 1.4.9 1.4 1.4 0 1.4-1.7 1-2.3-.5zM229 44c0-.5.5-1 1-1 .6 0 1 .5 1 1 0 .6-.4 1-1 1-.5 0-1-.4-1-1zM251 44c0-.5.5-1 1-1 .6 0 1 .5 1 1 0 .6-.4 1-1 1-.5 0-1-.4-1-1zM138.7 41.6c-.4-1-.1-1.3.9-.9 1.5.6 1.9 2.3.5 2.3-.5 0-1.1-.7-1.4-1.4zM308.7 41.6c-.4-1-.1-1.3.9-.9 1.5.6 1.9 2.3.5 2.3-.5 0-1.1-.7-1.4-1.4zM519 40.6c0-.8.7-1.6 1.5-2 1.3-.4 1.4-.2.5 1.4-1.3 2.3-2 2.6-2 .6zM261 39.4c0-.8.5-1.2 1-.9.6.3 1 1 1 1.6 0 .5-.4.9-1 .9-.5 0-1-.7-1-1.6zM447 40c0-.5.5-1 1-1 .6 0 1 .5 1 1 0 .6-.4 1-1 1-.5 0-1-.4-1-1zM457 40c0-.5.5-1 1-1 .6 0 1 .5 1 1 0 .6-.4 1-1 1-.5 0-1-.4-1-1zM504.7 39.6c-.4-1-.1-1.3.9-.9 1.5.6 1.9 2.3.5 2.3-.5 0-1.1-.7-1.4-1.4zM567 40c0-.5.5-1 1-1 .6 0 1 .5 1 1 0 .6-.4 1-1 1-.5 0-1-.4-1-1zM996.8 26.4c.2-5.2.8-9.4 1.3-9.4 1.5 0 1.1 17.7-.3 18.3-1 .3-1.2-1.7-1-8.9zM953 26c0-5.3.4-9 1-9s1 3.7 1 9-.4 9-1 9-1-3.7-1-9zM499 30c-.9-1.6-.8-1.8.5-1.4.8.4 1.5 1.2 1.5 2 0 2-.7 1.7-2-.6zM525 30.6c0-.8.7-1.6 1.5-2 1.3-.4 1.4-.2.5 1.4-1.3 2.3-2 2.6-2 .6zM843 24c0-.5.5-1 1-1 .6 0 1 .5 1 1 0 .6-.4 1-1 1-.5 0-1-.4-1-1zM896.3 23.3c-1.5-.5-1.7-2.3-.4-2.3.5 0 1.1.7 1.5 1.5.3.8.4 1.5.3 1.4-.1 0-.8-.3-1.4-.6zM493 20c-.9-1.6-.8-1.8.5-1.4.8.4 1.5 1.2 1.5 2 0 2-.7 1.7-2-.6zM531 20.6c0-.8.7-1.6 1.5-2 1.3-.4 1.4-.2.5 1.4-1.3 2.3-2 2.6-2 .6zM851 18c0-.5.5-1 1-1 .6 0 1 .5 1 1 0 .6-.4 1-1 1-.5 0-1-.4-1-1zM887.4 16.5c-1.6-1.2-1.7-1.4-.3-1.5.9 0 1.9.7 2.3 1.5.7 1.9.5 1.9-2 0zM177 16c0-.5.7-1 1.6-1 .8 0 1.2.5.9 1-.3.6-1 1-1.6 1-.5 0-.9-.4-.9-1zM353 16c0-.5.7-1 1.6-1 .8 0 1.2.5.9 1-.3.6-1 1-1.6 1-.5 0-.9-.4-.9-1zM732.5 16c-.3-.5.1-1 .9-1 .9 0 1.6.5 1.6 1 0 .6-.4 1-.9 1-.6 0-1.3-.4-1.6-1z"/></g><g fill="#e3e0ec" fill-rule="nonzero"><path d="M683 116c0-.5.4-1 .9-1 .6 0 1.3.5 1.6 1 .3.6-.1 1-.9 1-.9 0-1.6-.4-1.6-1zM732.5 116c.3-.5 1-1 1.6-1 .5 0 .9.5.9 1 0 .6-.7 1-1.6 1-.8 0-1.2-.4-.9-1zM794.5 116c.3-.5 1-1 1.6-1 .5 0 .9.5.9 1 0 .6-.7 1-1.6 1-.8 0-1.2-.4-.9-1zM973 116.1c0-.5.7-1.1 1.4-1.4 1-.4 1.3-.1.9.9-.6 1.5-2.3 1.9-2.3.5zM888.5 114c.3-.5 1-1 1.6-1 .5 0 .9.5.9 1 0 .6-.7 1-1.6 1-.8 0-1.2-.4-.9-1zM848.6 111.5c-.4-1.3-.2-1.4 1.4-.5 2.3 1.3 2.6 2 .6 2-.8 0-1.6-.7-2-1.5zM980 110.5c0-.2.9-.9 2-1.5 1.6-.9 1.8-.8 1.4.5-.5 1.3-3.4 2.2-3.4 1zM896 108.5c0-.2.9-.9 2-1.5 1.6-.9 1.8-.8 1.4.5-.5 1.3-3.4 2.2-3.4 1zM929 108c0-.5.4-1 .9-1 .6 0 1.3.5 1.6 1 .3.6-.1 1-.9 1-.9 0-1.6-.4-1.6-1zM839.3 104.4c-2.3-2.5-2.3-2.5-2.3-38.9 0-23.7.4-36.5 1-36.5s1 13 1 36.9v36.9l2.8 2.1c1.6 1.2 2.1 2 1.2 2-.8-.1-2.5-1.2-3.7-2.5zM511 104c0-.5.9-1 2-1s2 .5 2 1c0 .6-.9 1-2 1s-2-.4-2-1zM989 104c0-.5.5-1 1-1 .6 0 1 .5 1 1 0 .6-.4 1-1 1-.5 0-1-.4-1-1zM507 97.4c0-.8.5-1.2 1-.9.6.3 1 1 1 1.6 0 .5-.4.9-1 .9-.5 0-1-.7-1-1.6zM517 98.1c0-.6.5-1.3 1-1.6.6-.3 1 .1 1 .9 0 .9-.4 1.6-1 1.6-.5 0-1-.4-1-.9zM879 94c0-.5.5-1 1-1 .6 0 1 .5 1 1 0 .6-.4 1-1 1-.5 0-1-.4-1-1zM948.5 94c-.3-.5.1-1 .9-1 .9 0 1.6.5 1.6 1 0 .6-.4 1-.9 1-.6 0-1.3-.4-1.6-1zM747 92c0-1.9.3-2.1 1.2-1.2.9.9.9 1.5 0 2.4-.9.9-1.2.7-1.2-1.2zM301 92c0-.5.5-1 1-1 .6 0 1 .5 1 1 0 .6-.4 1-1 1-.5 0-1-.4-1-1zM497 92c0-.5.5-1 1-1 .6 0 1 .5 1 1 0 .6-.4 1-1 1-.5 0-1-.4-1-1zM527 92c0-.5.5-1 1-1 .6 0 1 .5 1 1 0 .6-.4 1-1 1-.5 0-1-.4-1-1zM637 92c0-.5.5-1 1-1 .6 0 1 .5 1 1 0 .6-.4 1-1 1-.5 0-1-.4-1-1zM677 92c0-.5.5-1 1-1 .6 0 1 .5 1 1 0 .6-.4 1-1 1-.5 0-1-.4-1-1zM671 90.6c0-.9.5-1.6 1-1.6.6 0 1 .4 1 .9 0 .6-.4 1.3-1 1.6-.5.3-1-.1-1-.9zM784.5 90c-.3-.5.1-1 .9-1 .9 0 1.6.5 1.6 1 0 .6-.4 1-.9 1-.6 0-1.3-.4-1.6-1zM881 65c0-16.7.4-26 1-26s1 9.3 1 26-.4 26-1 26-1-9.3-1-26zM501 87.4c0-.8.5-1.2 1-.9.6.3 1 1 1 1.6 0 .5-.4.9-1 .9-.5 0-1-.7-1-1.6zM585 84c0-.5.5-1 1-1 .6 0 1 .5 1 1 0 .6-.4 1-1 1-.5 0-1-.4-1-1zM667 80c0-.5.5-1 1-1 .6 0 1 .5 1 1 0 .6-.4 1-1 1-.5 0-1-.4-1-1zM769.6 75.1c-1.6-1.7-2.7-3.4-2.3-3.7.8-.8 5.9 4.4 5.5 5.7-.2.5-1.6-.4-3.2-2zM589 74c0-.5.5-1 1-1 .6 0 1 .5 1 1 0 .6-.4 1-1 1-.5 0-1-.4-1-1zM663 70c0-.5.5-1 1-1 .6 0 1 .5 1 1 0 .6-.4 1-1 1-.5 0-1-.4-1-1zM623 67.5c0-.8.5-1.5 1-1.5.6 0 1 .7 1 1.5s-.4 1.5-1 1.5c-.5 0-1-.7-1-1.5zM761.7 67.3c-.5-.8 0-2.2 1.2-3.5 1.8-1.8 2.1-1.9 2.1-.5 0 .9-.4 1.7-.9 1.7s-1.1.8-1.3 1.8c-.3 1.2-.6 1.4-1.1.5zM593 64c0-.5.5-1 1-1 .6 0 1 .5 1 1 0 .6-.4 1-1 1-.5 0-1-.4-1-1zM629 63.5c0-.8.5-1.5 1-1.5.6 0 1 .7 1 1.5s-.4 1.5-1 1.5c-.5 0-1-.7-1-1.5zM711 57.4c0-1.4.3-1.4 1.5-.4.8.7 1.5 1.4 1.5 1.6 0 .2-.7.4-1.5.4s-1.5-.7-1.5-1.6zM771 56c0-.5.5-1 1-1 .6 0 1 .5 1 1 0 .6-.4 1-1 1-.5 0-1-.4-1-1zM411 54c0-.5.5-1 1-1 .6 0 1 .5 1 1 0 .6-.4 1-1 1-.5 0-1-.4-1-1zM597 54c0-.5.5-1 1-1 .6 0 1 .5 1 1 0 .6-.4 1-1 1-.5 0-1-.4-1-1zM775 52.5c0-.3 1.4-1.9 3-3.7 1.7-1.7 3-2.6 3-1.9 0 .7-1.1 2.3-2.5 3.6-2.3 2.4-3.5 3.1-3.5 2zM510 48.1c-1.6-3.2-1.7-3.9-.5-3.5.8.4 1.5 1.5 1.5 2.5 0 1.3.7 1.9 2.1 1.9 1.1 0 1.9.5 1.7 1.2-.9 2.6-2.8 1.7-4.8-2.1zM215 50c0-.5.5-1 1-1 .6 0 1 .5 1 1 0 .6-.4 1-1 1-.5 0-1-.4-1-1zM405.6 45.1c-.4-.7-.5-1.5-.2-1.8.9-.9 1.9.4 1.4 1.8-.4 1.1-.6 1.1-1.2 0zM601 44c0-.5.5-1 1-1 .6 0 1 .5 1 1 0 .6-.4 1-1 1-.5 0-1-.4-1-1zM782 44.6c0-.2.7-.9 1.5-1.6 1.2-1 1.5-1 1.5.4 0 .9-.7 1.6-1.5 1.6s-1.5-.2-1.5-.4zM747 40c0-.5.5-1 1-1 .6 0 1 .5 1 1 0 .6-.4 1-1 1-.5 0-1-.4-1-1zM860.6 38.5c.3-.7 1.2-1.6 1.9-1.9.9-.3 1.2 0 .9.9-.3.7-1.2 1.6-1.9 1.9-.9.3-1.2 0-.9-.9zM953 36c0-.5.5-1 1-1 .6 0 1 .5 1 1 0 .6-.4 1-1 1-.5 0-1-.4-1-1zM996.5 36c.3-.5 1-1 1.6-1 .5 0 .9.5.9 1 0 .6-.7 1-1.6 1-.8 0-1.2-.4-.9-1zM399.6 35.1c-.4-.7-.5-1.5-.2-1.8.9-.9 1.9.4 1.4 1.8-.4 1.1-.6 1.1-1.2 0zM903 28.5c0-.8.5-1.5 1-1.5.6 0 1 .7 1 1.5s-.4 1.5-1 1.5c-.5 0-1-.7-1-1.5zM393 24c0-.5.5-1 1-1 .6 0 1 .5 1 1 0 .6-.4 1-1 1-.5 0-1-.4-1-1zM490.6 16.5c-.3-.9 0-1.5.9-1.5.8 0 1.5.7 1.5 1.5s-.4 1.5-.9 1.5-1.1-.7-1.5-1.5zM654.5 16c-.3-.5.1-1 .9-1 .9 0 1.6.5 1.6 1 0 .6-.4 1-.9 1-.6 0-1.3-.4-1.6-1zM683 16c0-.5.7-1 1.6-1 .8 0 1.2.5.9 1-.3.6-1 1-1.6 1-.5 0-.9-.4-.9-1zM794.5 16c-.3-.5.1-1 .9-1 .9 0 1.6.5 1.6 1 0 .6-.4 1-.9 1-.6 0-1.3-.4-1.6-1zM952.5 16c-.3-.5.1-1 .9-1 .9 0 1.6.5 1.6 1 0 .6-.4 1-.9 1-.6 0-1.3-.4-1.6-1zM996.5 16c-.3-.5.1-1 .9-1 .9 0 1.6.5 1.6 1 0 .6-.4 1-.9 1-.6 0-1.3-.4-1.6-1z"/></g></svg>